<svg width="24" height="24" viewBox="0 0 24 24" fill="none" xmlns="http://www.w3.org/2000/svg">
<g clip-path="url(#clip0_2082_51247)">
<path d="M3.11719 23.3009V2.63281C8.83969 3.04531 14.5884 3.05844 20.3128 2.67219C20.6278 2.65156 20.8847 2.86719 20.8847 3.15594V22.7778C20.8847 23.0666 20.6297 23.3197 20.3128 23.3403C14.587 23.7265 8.84119 23.7134 3.11719 23.3009Z" fill="#BDBDBD"/>
<path d="M3.11719 23.2924V2.62424C8.31844 1.47862 13.5403 0.726743 18.7416 0.376118C19.0284 0.357368 19.2609 0.576743 19.2609 0.865493V20.4874C19.2609 20.7761 19.0284 21.0255 18.7416 21.0442C13.5403 21.3949 8.31844 22.1467 3.11719 23.2924Z" fill="#E0E0E0"/>
<path d="M5.39062 9.24813C9.25313 8.48313 13.125 7.93563 16.9856 7.60938M5.39062 11.8525C7.03669 11.5258 8.69028 11.2382 10.35 10.99M5.39062 14.455C7.03669 14.1283 8.69028 13.8407 10.35 13.5925M5.39062 19.7913C9.25313 19.0263 13.125 18.4788 16.9856 18.1525M5.39062 17.0594C7.03669 16.7326 8.69028 16.4451 10.35 16.1969" stroke="#616161" stroke-miterlimit="10" stroke-linecap="round" stroke-linejoin="round"/>
<path d="M12.1614 16.411C13.6994 16.2087 15.2416 16.0405 16.787 15.9066C17.0664 15.8822 17.2914 15.6366 17.2914 15.3553V10.2216C17.2914 9.94035 17.0645 9.73222 16.787 9.7566C15.2458 9.88972 13.7045 10.0585 12.1614 10.261C11.882 10.2985 11.6552 10.5572 11.6552 10.8366V15.9703C11.657 16.2516 11.882 16.4485 12.1614 16.411ZM5.71142 6.63472C6.09204 6.55972 6.47079 6.48847 6.85142 6.4191C7.13079 6.36847 7.35579 6.10035 7.35579 5.8191V4.50285C7.35579 4.2216 7.12892 4.03597 6.85142 4.0866C6.47079 4.15597 6.09204 4.2291 5.71142 4.30222C5.43204 4.3566 5.20704 4.63035 5.20704 4.90972V6.22597C5.20517 6.50722 5.43204 6.6891 5.71142 6.63472ZM8.70392 6.09472C9.08454 6.03097 9.46329 5.97097 9.84392 5.91285C10.1233 5.86972 10.3502 5.6091 10.3502 5.32785V4.0116C10.3502 3.73035 10.1233 3.53722 9.84392 3.58035C9.46329 3.63847 9.08267 3.70035 8.70392 3.76222C8.42454 3.8091 8.19954 4.07535 8.19954 4.35472V5.67097C8.19954 5.95222 8.42454 6.1416 8.70392 6.09472ZM11.6983 5.64285C12.0789 5.59035 12.4595 5.5416 12.8383 5.49285C13.1177 5.45722 13.3445 5.2041 13.3445 4.92285V3.6066C13.3445 3.32535 13.1177 3.12472 12.8383 3.16035C12.4577 3.20722 12.077 3.25785 11.6983 3.31035C11.4189 3.34785 11.192 3.60847 11.192 3.88785V5.2041C11.1939 5.48535 11.4208 5.68035 11.6983 5.64285Z" fill="#616161"/>
</g>
<defs>
<clipPath id="clip0_2082_51247">
<rect width="24" height="24" fill="white"/>
</clipPath>
</defs>
</svg>
