<svg width="35" height="35" viewBox="0 0 35 35" fill="none" xmlns="http://www.w3.org/2000/svg">
<path d="M22.1947 0.70743L23.0647 3.38493C23.3345 4.19932 23.7911 4.93931 24.3979 5.54573C25.0048 6.15216 25.7451 6.60821 26.5597 6.87743L29.2397 7.74743L29.2922 7.76243C29.4987 7.83513 29.6775 7.97012 29.8041 8.14879C29.9306 8.32746 29.9985 8.541 29.9985 8.75993C29.9985 8.97886 29.9306 9.1924 29.8041 9.37107C29.6775 9.54974 29.4987 9.68473 29.2922 9.75743L26.6147 10.6274C25.7996 10.8963 25.0588 11.3522 24.4515 11.9587C23.8442 12.5651 23.3872 13.3053 23.1172 14.1199L22.2472 16.7949C22.1745 17.0014 22.0395 17.1803 21.8608 17.3068C21.6821 17.4333 21.4686 17.5013 21.2497 17.5013C21.0307 17.5013 20.8172 17.4333 20.6385 17.3068C20.4599 17.1803 20.3249 17.0014 20.2522 16.7949L19.3822 14.1199C19.1141 13.3025 18.658 12.5593 18.0506 11.9502C17.4432 11.341 16.7013 10.8828 15.8847 10.6124L13.2047 9.74243C12.9982 9.66973 12.8193 9.53474 12.6928 9.35607C12.5663 9.1774 12.4983 8.96386 12.4983 8.74493C12.4983 8.526 12.5663 8.31246 12.6928 8.13379C12.8193 7.95512 12.9982 7.82013 13.2047 7.74743L15.8847 6.87743C16.6895 6.60127 17.4194 6.14211 18.0167 5.53609C18.6141 4.93006 19.0626 4.1937 19.3272 3.38493L20.1972 0.70993C20.2693 0.502552 20.4043 0.322781 20.5832 0.195566C20.7622 0.0683504 20.9763 0 21.1959 0C21.4155 0 21.6296 0.0683504 21.8086 0.195566C21.9876 0.322781 22.1225 0.500052 22.1947 0.70743ZM34.4572 20.5374L32.5447 19.9174C31.9627 19.7238 31.4337 19.3973 30.9998 18.9638C30.5659 18.5303 30.2389 18.0017 30.0447 17.4199L29.4247 15.5099C29.3729 15.3623 29.2765 15.2343 29.1489 15.1438C29.0213 15.0533 28.8686 15.0047 28.7122 15.0047C28.5557 15.0047 28.4031 15.0533 28.2754 15.1438C28.1478 15.2343 28.0514 15.3623 27.9997 15.5099L27.3747 17.4199C27.1848 17.9972 26.8642 18.5229 26.438 18.9561C26.0118 19.3893 25.4913 19.7182 24.9172 19.9174L23.0047 20.5374C22.8581 20.5903 22.7315 20.6871 22.6419 20.8146C22.5524 20.9421 22.5044 21.0941 22.5044 21.2499C22.5044 21.4057 22.5524 21.5577 22.6419 21.6852C22.7315 21.8127 22.8581 21.9095 23.0047 21.9624L24.9172 22.5849C25.5 22.7793 26.0294 23.1069 26.4634 23.5418C26.8974 23.9766 27.224 24.5067 27.4172 25.0899L28.0372 26.9999C28.0889 27.1476 28.1853 27.2755 28.3129 27.3661C28.4406 27.4566 28.5932 27.5052 28.7497 27.5052C28.9061 27.5052 29.0588 27.4566 29.1864 27.3661C29.314 27.2755 29.4104 27.1476 29.4622 26.9999L30.0847 25.0899C30.2786 24.5084 30.6052 23.98 31.0387 23.5465C31.4722 23.113 32.0006 22.7864 32.5822 22.5924L34.4947 21.9724C34.6412 21.9195 34.7679 21.8227 34.8574 21.6952C34.9469 21.5677 34.995 21.4157 34.995 21.2599C34.995 21.1041 34.9469 20.9521 34.8574 20.8246C34.7679 20.6971 34.6412 20.6003 34.4947 20.5474L34.4572 20.5374ZM25.6897 27.8774C25.9163 28.4524 26.2713 28.9349 26.7547 29.3249C25.351 31.0972 23.5642 32.5287 21.5284 33.512C19.4926 34.4953 17.2605 35.0048 14.9997 35.0024C12.363 35.0033 9.77261 34.3092 7.48967 32.9899L1.64467 34.9399C1.42872 35.012 1.19719 35.0238 0.975053 34.9739C0.752917 34.9241 0.548615 34.8145 0.384198 34.657C0.21978 34.4995 0.10149 34.3002 0.0420946 34.0804C-0.0173013 33.8606 -0.0155474 33.6288 0.0471669 33.4099L1.82717 27.1824C0.651947 25.0268 0.0238158 22.6157 -0.00209422 20.1606C-0.0280042 17.7056 0.549099 15.2818 1.67856 13.1018C2.80803 10.9219 4.45532 9.05249 6.47585 7.65776C8.49638 6.26302 10.8284 5.38558 13.2672 5.10243L12.3772 5.38743C11.6772 5.63743 11.0772 6.08743 10.6522 6.68743C10.2641 7.23055 10.0394 7.87332 10.0047 8.53993C8.37909 9.24813 6.92278 10.2941 5.73246 11.6083C4.54214 12.9225 3.64503 14.4749 3.10073 16.1625C2.55642 17.85 2.37737 19.634 2.57546 21.3961C2.77355 23.1581 3.34425 24.8579 4.24967 26.3824C4.33675 26.5289 4.39299 26.6916 4.41491 26.8605C4.43684 27.0295 4.42399 27.2011 4.37717 27.3649L3.10467 31.8149L7.24967 30.4349C7.4257 30.3762 7.61261 30.3574 7.79682 30.3799C7.98104 30.4023 8.15793 30.4656 8.31467 30.5649C10.2497 31.7899 12.5372 32.5024 14.9997 32.5024C17.0542 32.5025 19.0772 31.9961 20.8894 31.028C22.7016 30.06 24.2473 28.6602 25.3897 26.9524L25.6897 27.8774Z" fill="white" fill-opacity="0.7"/>
</svg>
