<svg width="24" height="24" viewBox="0 0 24 24" fill="none" xmlns="http://www.w3.org/2000/svg">
<path d="M6.95195 12.6673C7.37195 11.7206 7.85429 10.819 8.39895 9.96231C8.94362 9.10631 9.54129 8.28598 10.192 7.50131L8.77695 7.20631C8.50762 7.15298 8.24662 7.16331 7.99395 7.23731C7.74195 7.31198 7.51829 7.44665 7.32295 7.64131L4.53795 10.4273C4.33929 10.626 4.26595 10.8683 4.31795 11.1543C4.36995 11.4403 4.53062 11.637 4.79995 11.7443L6.95195 12.6673ZM19.479 3.82031C17.943 3.85231 16.4946 4.19398 15.134 4.84531C13.7733 5.49665 12.551 6.36398 11.467 7.44731C10.7696 8.14465 10.152 8.90231 9.61395 9.72031C9.07595 10.5383 8.59495 11.3936 8.17095 12.2863C8.08762 12.4643 8.04595 12.6466 8.04595 12.8333C8.04595 13.02 8.11662 13.1836 8.25795 13.3243L10.825 15.8723C10.9663 16.0136 11.127 16.0873 11.307 16.0933C11.487 16.0993 11.666 16.061 11.844 15.9783C12.7366 15.567 13.592 15.086 14.41 14.5353C15.228 13.9846 15.9856 13.3606 16.683 12.6633C17.7663 11.58 18.6336 10.3576 19.285 8.99631C19.9363 7.63498 20.278 6.18665 20.31 4.65131C20.31 4.54331 20.2893 4.44198 20.248 4.34731C20.2073 4.25265 20.1433 4.16165 20.056 4.07431C19.9686 3.98698 19.8776 3.92298 19.783 3.88231C19.6876 3.84098 19.5863 3.82031 19.479 3.82031ZM13.994 10.1363C13.7006 9.84231 13.554 9.48665 13.554 9.06931C13.554 8.65198 13.7006 8.29665 13.994 8.00331C14.2873 7.70998 14.643 7.56331 15.061 7.56331C15.479 7.56331 15.8343 7.70998 16.127 8.00331C16.4196 8.29665 16.5663 8.65198 16.567 9.06931C16.5676 9.48665 16.421 9.84231 16.127 10.1363C15.833 10.4303 15.4776 10.577 15.061 10.5763C14.6443 10.5756 14.2886 10.429 13.994 10.1363ZM11.444 17.1783L12.367 19.3303C12.475 19.5996 12.6716 19.761 12.957 19.8143C13.2436 19.8683 13.4863 19.796 13.685 19.5973L16.469 16.8133C16.6643 16.618 16.799 16.39 16.873 16.1293C16.947 15.8686 16.957 15.6033 16.903 15.3333L16.616 13.9383C15.8273 14.589 15.0056 15.1866 14.151 15.7313C13.2963 16.2753 12.394 16.7576 11.444 17.1783ZM5.14595 16.1433C5.53729 15.752 6.01162 15.5586 6.56895 15.5633C7.12629 15.568 7.60062 15.7656 7.99195 16.1563C8.38329 16.547 8.57895 17.0216 8.57895 17.5803C8.57895 18.139 8.38329 18.6133 7.99195 19.0033C7.43595 19.5593 6.78195 19.9093 6.02995 20.0533C5.27795 20.1966 4.51862 20.305 3.75195 20.3783C3.82529 19.5983 3.93762 18.8356 4.08895 18.0903C4.24029 17.345 4.59262 16.696 5.14595 16.1433Z" fill="#EB4335"/>
</svg>
